# xmcd CD database file
#
# Track frame offsets:
#	150
#	15356
#	30376
#	46212
#	59546
#	76627
#	91236
#	106598
#	123251
#	137346
#	153849
#	168889
#	184125
#	199051
#	215099
#	229285
#
# Disc length: 3285 seconds
#
# Revision: 0
# Processed by: cddbd v1.5.2PL0 Copyright (c) Steve Scherf et al.
# Submitted via: CDex 1.50
#
DISCID=bb0cd310
DTITLE=Lou Bega - Lounatic
DYEAR=1900
DGENRE=Salsa
TTITLE0=Bachata
TTITLE1=Pussycat
TTITLE2=Conchita Feat. Klass Brothers and Cuba percussion
TTITLE3=You wanna be americano
TTITLE4=Get Better
TTITLE5=Egyptian Queen
TTITLE6=Dance like an African
TTITLE7=Someday
TTITLE8=I got style
TTITLE9=Mrs Monday
TTITLE10=Chocolata
TTITLE11=What's up (Guca version)
TTITLE12=My Mama
TTITLE13=Las Vegas
TTITLE14=Bachata (acoustic)
TTITLE15=Return of "A little bit" Feat. Mixmaster Erich
EXTD=
EXTT0=
EXTT1=
EXTT2=
EXTT3=
EXTT4=
EXTT5=
EXTT6=
EXTT7=
EXTT8=
EXTT9=
EXTT10=
EXTT11=
EXTT12=
EXTT13=
EXTT14=
EXTT15=
PLAYORDER=
